<svg width="21" height="16" viewBox="0 0 21 16" fill="none" xmlns="http://www.w3.org/2000/svg">
<path d="M12.5393 15.0964C12.2697 14.8274 12.1402 14.5022 12.151 14.1211C12.1627 13.7399 12.3034 13.4148 12.573 13.1457L16.382 9.34529H1.34831C0.966292 9.34529 0.645843 9.21614 0.386966 8.95785C0.128989 8.70045 0 8.38117 0 8C0 7.61883 0.128989 7.2991 0.386966 7.04081C0.645843 6.78341 0.966292 6.65471 1.34831 6.65471H16.382L12.5393 2.82063C12.2697 2.55157 12.1348 2.23184 12.1348 1.86143C12.1348 1.49193 12.2697 1.17265 12.5393 0.903587C12.809 0.634529 13.1294 0.5 13.5007 0.5C13.871 0.5 14.191 0.634529 14.4607 0.903587L20.6292 7.0583C20.764 7.19282 20.8598 7.33856 20.9164 7.49551C20.9721 7.65247 21 7.82063 21 8C21 8.17937 20.9721 8.34753 20.9164 8.50448C20.8598 8.66143 20.764 8.80717 20.6292 8.9417L14.427 15.13C14.1798 15.3767 13.871 15.5 13.5007 15.5C13.1294 15.5 12.809 15.3655 12.5393 15.0964Z" fill="white"/>
</svg>
