<svg width="106" height="54" viewBox="0 0 106 54" fill="none" xmlns="http://www.w3.org/2000/svg">
<path d="M22.7096 53.1801C10.5364 53.1801 0.667969 43.3117 0.667969 31.1385C0.667969 18.9653 10.5364 9.09688 22.7096 9.09688C27.3073 9.09688 31.576 10.5048 35.1082 12.9147C39.7594 5.55465 47.9661 0.668015 57.3169 0.668015C70.2984 0.668015 81.0787 10.0889 83.1947 22.4658C84.99 21.761 86.944 21.3753 88.9882 21.3753C97.7694 21.3753 104.889 28.4948 104.889 37.2777C104.889 46.0606 97.7694 53.1801 88.9882 53.1801H22.7096Z" fill="white"/>
<path fill-rule="evenodd" clip-rule="evenodd" d="M57.3169 1.33606C48.2048 1.33606 40.2069 6.0971 35.673 13.2716C35.5762 13.4248 35.4213 13.5321 35.2438 13.5688C35.0663 13.6056 34.8815 13.5687 34.7318 13.4665C31.3071 11.1299 27.1689 9.76493 22.7097 9.76493C10.9054 9.76493 1.33606 19.3343 1.33606 31.1385C1.33606 42.9428 10.9054 52.5121 22.7097 52.5121H88.9882C97.4005 52.5121 104.221 45.6918 104.221 37.2777C104.221 28.8637 97.4005 22.0433 88.9882 22.0433C87.0288 22.0433 85.1575 22.413 83.4389 23.0877C83.2517 23.1611 83.0415 23.1464 82.8665 23.0476C82.6914 22.9489 82.5701 22.7765 82.5363 22.5784C80.4742 10.5169 69.9675 1.33606 57.3169 1.33606ZM34.9149 11.9864C39.7413 4.76025 47.9717 0 57.3169 0C70.3536 0 81.2243 9.26474 83.707 21.5683C85.3667 21.0092 87.1428 20.7073 88.9882 20.7073C98.1385 20.7073 105.557 28.1259 105.557 37.2777C105.557 46.4296 98.1385 53.8482 88.9882 53.8482H22.7097C10.1676 53.8482 0 43.6806 0 31.1385C0 18.5964 10.1676 8.42887 22.7097 8.42887C27.2012 8.42887 31.3898 9.73361 34.9149 11.9864Z" fill="#1D1D1B"/>
<path d="M86.7154 47.6773C93.0233 47.6773 98.0769 42.2161 98.9169 36.1337C98.9186 36.1204 98.9387 36.1204 98.9403 36.1337C99.0055 36.6431 99.0372 37.1642 99.0372 37.6919C99.0372 44.586 93.4491 50.1757 86.5534 50.1757H24.4751C14.5565 50.1757 6.51843 42.136 6.51843 32.2191C6.51843 29.5954 7.08125 27.1003 8.09498 24.8541C8.10166 24.8407 8.12003 24.8474 8.11669 24.8624C7.72757 26.2486 7.50044 27.7032 7.45868 29.2029C7.16976 39.362 15.4851 47.679 25.6475 47.679H86.7154V47.6773Z" fill="#70C5C8"/>
</svg>
